<svg xmlns="http://www.w3.org/2000/svg" xmlns:xlink="http://www.w3.org/1999/xlink" width="500" zoomAndPan="magnify" viewBox="0 0 375 374.999991" height="500" preserveAspectRatio="xMidYMid meet" version="1.0"><defs><g/><clipPath id="78dde49ff2"><path d="M 12.949219 5.304688 L 367.417969 5.304688 L 367.417969 359.769531 L 12.949219 359.769531 Z M 12.949219 5.304688 " clip-rule="nonzero"/></clipPath><clipPath id="c2793dec73"><path d="M 30.199219 5.304688 L 350.167969 5.304688 C 354.742188 5.304688 359.128906 7.121094 362.363281 10.355469 C 365.601562 13.589844 367.417969 17.976562 367.417969 22.554688 L 367.417969 342.519531 C 367.417969 347.097656 365.601562 351.484375 362.363281 354.71875 C 359.128906 357.953125 354.742188 359.769531 350.167969 359.769531 L 30.199219 359.769531 C 25.625 359.769531 21.234375 357.953125 18 354.71875 C 14.765625 351.484375 12.949219 347.097656 12.949219 342.519531 L 12.949219 22.554688 C 12.949219 17.976562 14.765625 13.589844 18 10.355469 C 21.234375 7.121094 25.625 5.304688 30.199219 5.304688 Z M 30.199219 5.304688 " clip-rule="nonzero"/></clipPath></defs><g clip-path="url(#78dde49ff2)"><g clip-path="url(#c2793dec73)"><path fill="#737373" d="M 12.949219 5.304688 L 367.417969 5.304688 L 367.417969 359.769531 L 12.949219 359.769531 Z M 12.949219 5.304688 " fill-opacity="1" fill-rule="nonzero"/></g></g><g fill="#fff8db" fill-opacity="1"><g transform="translate(128.334049, 330.111378)"><g><path d="M 211.8125 -63.265625 C 211.8125 -51.347656 208.890625 -40.628906 203.046875 -31.109375 C 197.203125 -21.597656 189.289062 -14.035156 179.3125 -8.421875 C 169.34375 -2.804688 158.285156 0 146.140625 0 L 31.984375 0 L 31.984375 -244.140625 L 145.796875 -244.140625 C 157.253906 -244.140625 167.164062 -241.101562 175.53125 -235.03125 C 183.90625 -228.957031 190.328125 -221.160156 194.796875 -211.640625 C 199.265625 -202.128906 201.5 -192.21875 201.5 -181.90625 C 201.5 -169.75 198.40625 -158.457031 192.21875 -148.03125 C 186.03125 -137.601562 177.429688 -129.984375 166.421875 -125.171875 C 180.410156 -121.035156 191.472656 -113.296875 199.609375 -101.953125 C 207.742188 -90.609375 211.8125 -77.710938 211.8125 -63.265625 Z M 194.28125 -65.671875 C 194.28125 -74.390625 192.273438 -82.53125 188.265625 -90.09375 C 184.253906 -97.65625 178.804688 -103.84375 171.921875 -108.65625 C 165.046875 -113.46875 157.253906 -115.875 148.546875 -115.875 L 49.515625 -115.875 L 49.515625 -15.8125 L 146.140625 -15.8125 C 155.078125 -15.8125 163.210938 -18.160156 170.546875 -22.859375 C 177.890625 -27.566406 183.679688 -33.757812 187.921875 -41.4375 C 192.160156 -49.113281 194.28125 -57.191406 194.28125 -65.671875 Z M 49.515625 -228.328125 L 49.515625 -130.671875 L 138.921875 -130.671875 C 147.859375 -130.671875 155.707031 -133.019531 162.46875 -137.71875 C 169.238281 -142.414062 174.570312 -148.488281 178.46875 -155.9375 C 182.363281 -163.382812 184.3125 -171.238281 184.3125 -179.5 C 184.3125 -188.4375 182.476562 -196.570312 178.8125 -203.90625 C 175.144531 -211.238281 170.039062 -217.140625 163.5 -221.609375 C 156.96875 -226.085938 149.460938 -228.328125 140.984375 -228.328125 Z M 49.515625 -228.328125 "/></g></g></g><g fill="#fff8db" fill-opacity="1"><g transform="translate(37.801112, 275.056531)"><g><path d="M 29.765625 0 L 29.765625 -237.421875 L 128.078125 -237.421875 C 138.328125 -237.421875 147.742188 -235.300781 156.328125 -231.0625 C 164.910156 -226.832031 172.320312 -221.09375 178.5625 -213.84375 C 184.8125 -206.601562 189.71875 -198.578125 193.28125 -189.765625 C 196.851562 -180.960938 198.640625 -171.992188 198.640625 -162.859375 C 198.640625 -149.921875 195.796875 -137.710938 190.109375 -126.234375 C 184.421875 -114.753906 176.445312 -105.445312 166.1875 -98.3125 C 155.9375 -91.175781 143.898438 -87.609375 130.078125 -87.609375 L 53.171875 -87.609375 L 53.171875 0 Z M 53.171875 -108.34375 L 129.078125 -108.34375 C 138.441406 -108.34375 146.578125 -110.90625 153.484375 -116.03125 C 160.398438 -121.164062 165.753906 -127.851562 169.546875 -136.09375 C 173.335938 -144.34375 175.234375 -153.265625 175.234375 -162.859375 C 175.234375 -172.660156 173.003906 -181.6875 168.546875 -189.9375 C 164.085938 -198.1875 158.234375 -204.707031 150.984375 -209.5 C 143.734375 -214.289062 135.765625 -216.6875 127.078125 -216.6875 L 53.171875 -216.6875 Z M 53.171875 -108.34375 "/></g></g></g></svg>