<svg xmlns="http://www.w3.org/2000/svg" xmlns:xlink="http://www.w3.org/1999/xlink" width="500" zoomAndPan="magnify" viewBox="0 0 375 374.999991" height="500" preserveAspectRatio="xMidYMid meet" version="1.0"><defs><g/><clipPath id="389e7401ee"><path d="M 132.609375 142.410156 L 239.109375 142.410156 L 239.109375 236 L 132.609375 236 Z M 132.609375 142.410156 " clip-rule="nonzero"/></clipPath></defs><g fill="#403029" fill-opacity="1"><g transform="translate(55.851272, 165.991601)"><g><path d="M -12.421875 -11.25 C -12.347656 -11.75 -12.175781 -12.195312 -11.90625 -12.59375 C -11.644531 -13 -11.328125 -13.332031 -10.953125 -13.59375 C -10.578125 -13.863281 -10.160156 -14.054688 -9.703125 -14.171875 C -9.242188 -14.296875 -8.769531 -14.320312 -8.28125 -14.25 L -7.109375 -14.0625 C -6.617188 -13.976562 -6.164062 -13.804688 -5.75 -13.546875 C -5.332031 -13.285156 -4.988281 -12.96875 -4.71875 -12.59375 C -4.457031 -12.226562 -4.265625 -11.8125 -4.140625 -11.34375 C -4.023438 -10.882812 -4.003906 -10.40625 -4.078125 -9.90625 L -4.84375 -5.15625 L 0.234375 -4.34375 C 0.359375 -4.320312 0.457031 -4.265625 0.53125 -4.171875 C 0.601562 -4.078125 0.628906 -3.96875 0.609375 -3.84375 L 0.3125 -1.9375 C 0.289062 -1.820312 0.226562 -1.726562 0.125 -1.65625 C 0.0195312 -1.582031 -0.09375 -1.554688 -0.21875 -1.578125 L -13.1875 -3.65625 C -13.3125 -3.675781 -13.410156 -3.738281 -13.484375 -3.84375 C -13.554688 -3.945312 -13.582031 -4.054688 -13.5625 -4.171875 Z M -8.71875 -11.484375 C -8.9375 -11.515625 -9.132812 -11.460938 -9.3125 -11.328125 C -9.5 -11.203125 -9.609375 -11.023438 -9.640625 -10.796875 L -10.40625 -6.046875 L -7.609375 -5.59375 L -6.84375 -10.34375 C -6.8125 -10.570312 -6.863281 -10.773438 -7 -10.953125 C -7.132812 -11.140625 -7.316406 -11.253906 -7.546875 -11.296875 Z M -8.71875 -11.484375 "/></g></g></g><g fill="#403029" fill-opacity="1"><g transform="translate(59.327252, 146.827958)"><g><path d="M -10.609375 -12.90625 C -10.578125 -13.03125 -10.503906 -13.132812 -10.390625 -13.21875 C -10.273438 -13.300781 -10.15625 -13.34375 -10.03125 -13.34375 L -2.15625 -13.90625 C -2.039062 -13.914062 -1.894531 -13.910156 -1.71875 -13.890625 C -1.550781 -13.867188 -1.40625 -13.835938 -1.28125 -13.796875 L 3.453125 -12.28125 C 3.578125 -12.238281 3.664062 -12.160156 3.71875 -12.046875 C 3.78125 -11.941406 3.789062 -11.828125 3.75 -11.703125 L 3.171875 -9.875 C 3.128906 -9.757812 3.050781 -9.671875 2.9375 -9.609375 C 2.832031 -9.554688 2.71875 -9.550781 2.59375 -9.59375 L 0.375 -10.3125 L -1.34375 -4.96875 L 0.875 -4.25 C 1 -4.207031 1.085938 -4.128906 1.140625 -4.015625 C 1.203125 -3.910156 1.21875 -3.800781 1.1875 -3.6875 L 0.59375 -1.875 C 0.5625 -1.757812 0.488281 -1.671875 0.375 -1.609375 C 0.269531 -1.546875 0.15625 -1.535156 0.03125 -1.578125 L -4.703125 -3.09375 C -4.828125 -3.132812 -4.96875 -3.195312 -5.125 -3.28125 C -5.28125 -3.363281 -5.398438 -3.441406 -5.484375 -3.515625 L -11.5625 -8.546875 C -11.65625 -8.640625 -11.722656 -8.753906 -11.765625 -8.890625 C -11.816406 -9.023438 -11.820312 -9.148438 -11.78125 -9.265625 Z M -4 -5.921875 L -2.34375 -11.078125 L -8.390625 -10.65625 L -8.671875 -9.796875 Z M -4 -5.921875 "/></g></g></g><g fill="#403029" fill-opacity="1"><g transform="translate(65.648455, 128.405972)"><g><path d="M -7.109375 -17.265625 C -7.046875 -17.367188 -6.957031 -17.441406 -6.84375 -17.484375 C -6.726562 -17.535156 -6.613281 -17.53125 -6.5 -17.46875 L -4.78125 -16.625 C -4.664062 -16.5625 -4.585938 -16.46875 -4.546875 -16.34375 C -4.515625 -16.226562 -4.53125 -16.117188 -4.59375 -16.015625 L -6.265625 -12.640625 L 3.390625 -7.84375 C 3.503906 -7.789062 3.582031 -7.703125 3.625 -7.578125 C 3.664062 -7.460938 3.65625 -7.347656 3.59375 -7.234375 L 2.734375 -5.515625 C 2.691406 -5.410156 2.609375 -5.34375 2.484375 -5.3125 C 2.367188 -5.28125 2.253906 -5.289062 2.140625 -5.34375 L -7.515625 -10.140625 L -9.1875 -6.765625 C -9.238281 -6.648438 -9.320312 -6.570312 -9.4375 -6.53125 C -9.550781 -6.488281 -9.664062 -6.5 -9.78125 -6.5625 L -11.5 -7.40625 C -11.613281 -7.46875 -11.6875 -7.554688 -11.71875 -7.671875 C -11.757812 -7.785156 -11.753906 -7.898438 -11.703125 -8.015625 Z M -7.109375 -17.265625 "/></g></g></g><g fill="#403029" fill-opacity="1"><g transform="translate(74.670802, 111.145482)"><g><path d="M 6.890625 -10.5 C 7.003906 -10.476562 7.078125 -10.421875 7.109375 -10.328125 C 7.148438 -10.242188 7.132812 -10.148438 7.0625 -10.046875 L 5.796875 -8.265625 C 5.734375 -8.160156 5.632812 -8.082031 5.5 -8.03125 C 5.363281 -7.988281 5.238281 -7.976562 5.125 -8 L -0.5 -9.046875 L -2.09375 -6.765625 L 2.125 -3.8125 C 2.226562 -3.738281 2.289062 -3.640625 2.3125 -3.515625 C 2.332031 -3.398438 2.304688 -3.289062 2.234375 -3.1875 L 1.125 -1.609375 C 1.0625 -1.503906 0.96875 -1.441406 0.84375 -1.421875 C 0.71875 -1.398438 0.601562 -1.425781 0.5 -1.5 L -10.25 -9.046875 C -10.351562 -9.117188 -10.414062 -9.21875 -10.4375 -9.34375 C -10.457031 -9.46875 -10.4375 -9.582031 -10.375 -9.6875 L -6.25 -15.546875 C -5.957031 -15.960938 -5.601562 -16.296875 -5.1875 -16.546875 C -4.78125 -16.796875 -4.347656 -16.953125 -3.890625 -17.015625 C -3.441406 -17.085938 -2.984375 -17.078125 -2.515625 -16.984375 C -2.046875 -16.898438 -1.609375 -16.710938 -1.203125 -16.421875 L -0.234375 -15.75 C 0.0976562 -15.507812 0.382812 -15.222656 0.625 -14.890625 C 0.863281 -14.566406 1.039062 -14.222656 1.15625 -13.859375 C 1.269531 -13.503906 1.320312 -13.128906 1.3125 -12.734375 C 1.3125 -12.347656 1.25 -11.96875 1.125 -11.59375 Z M -1.625 -12.296875 C -1.488281 -12.492188 -1.441406 -12.703125 -1.484375 -12.921875 C -1.535156 -13.140625 -1.65625 -13.316406 -1.84375 -13.453125 L -2.8125 -14.125 C -3 -14.257812 -3.195312 -14.304688 -3.40625 -14.265625 C -3.625 -14.234375 -3.800781 -14.117188 -3.9375 -13.921875 L -6.6875 -10 L -4.375 -8.375 Z M -1.625 -12.296875 "/></g></g></g><g fill="#403029" fill-opacity="1"><g transform="translate(86.188686, 95.439878)"><g><path d="M 0.203125 -17.09375 C 0.296875 -17 0.34375 -16.890625 0.34375 -16.765625 C 0.34375 -16.648438 0.300781 -16.546875 0.21875 -16.453125 L -2.203125 -13.921875 L 3.890625 -8.09375 L 6.3125 -10.625 C 6.394531 -10.71875 6.5 -10.765625 6.625 -10.765625 C 6.75 -10.765625 6.851562 -10.722656 6.9375 -10.640625 L 8.3125 -9.328125 C 8.40625 -9.242188 8.453125 -9.140625 8.453125 -9.015625 C 8.453125 -8.890625 8.410156 -8.78125 8.328125 -8.6875 L 1.5625 -1.625 C 1.46875 -1.53125 1.359375 -1.484375 1.234375 -1.484375 C 1.117188 -1.484375 1.015625 -1.523438 0.921875 -1.609375 L -0.453125 -2.921875 C -0.535156 -3.003906 -0.578125 -3.109375 -0.578125 -3.234375 C -0.585938 -3.359375 -0.546875 -3.46875 -0.453125 -3.5625 L 1.953125 -6.078125 L -4.140625 -11.90625 L -6.546875 -9.390625 C -6.640625 -9.296875 -6.742188 -9.242188 -6.859375 -9.234375 C -6.984375 -9.234375 -7.09375 -9.28125 -7.1875 -9.375 L -8.5625 -10.703125 C -8.65625 -10.785156 -8.703125 -10.890625 -8.703125 -11.015625 C -8.710938 -11.140625 -8.671875 -11.25 -8.578125 -11.34375 L -1.8125 -18.40625 C -1.726562 -18.5 -1.625 -18.546875 -1.5 -18.546875 C -1.375 -18.546875 -1.265625 -18.503906 -1.171875 -18.421875 Z M 0.203125 -17.09375 "/></g></g></g><g fill="#403029" fill-opacity="1"><g transform="translate(99.939571, 81.647113)"><g><path d="M 2.234375 -14.125 C 2.140625 -14.050781 2.03125 -14.023438 1.90625 -14.046875 C 1.789062 -14.066406 1.695312 -14.125 1.625 -14.21875 L 1.53125 -14.34375 C 1.394531 -14.519531 1.210938 -14.617188 0.984375 -14.640625 C 0.765625 -14.671875 0.5625 -14.613281 0.375 -14.46875 L -2.78125 -12.046875 C -2.96875 -11.898438 -3.070312 -11.71875 -3.09375 -11.5 C -3.113281 -11.289062 -3.054688 -11.097656 -2.921875 -10.921875 L 1.21875 -5.53125 C 1.363281 -5.34375 1.546875 -5.226562 1.765625 -5.1875 C 1.984375 -5.15625 2.1875 -5.210938 2.375 -5.359375 L 5.53125 -7.78125 C 5.71875 -7.925781 5.820312 -8.109375 5.84375 -8.328125 C 5.875 -8.554688 5.816406 -8.765625 5.671875 -8.953125 L 5.59375 -9.0625 C 5.519531 -9.15625 5.488281 -9.265625 5.5 -9.390625 C 5.507812 -9.515625 5.5625 -9.613281 5.65625 -9.6875 L 7.171875 -10.84375 C 7.265625 -10.914062 7.375 -10.941406 7.5 -10.921875 C 7.632812 -10.910156 7.738281 -10.859375 7.8125 -10.765625 L 7.890625 -10.65625 C 8.203125 -10.25 8.410156 -9.8125 8.515625 -9.34375 C 8.628906 -8.882812 8.65625 -8.425781 8.59375 -7.96875 C 8.539062 -7.507812 8.398438 -7.070312 8.171875 -6.65625 C 7.953125 -6.238281 7.640625 -5.875 7.234375 -5.5625 L 4.078125 -3.140625 C 3.679688 -2.835938 3.242188 -2.625 2.765625 -2.5 C 2.296875 -2.382812 1.832031 -2.359375 1.375 -2.421875 C 0.925781 -2.484375 0.492188 -2.625 0.078125 -2.84375 C -0.335938 -3.070312 -0.703125 -3.390625 -1.015625 -3.796875 L -5.15625 -9.1875 C -5.457031 -9.582031 -5.664062 -10.007812 -5.78125 -10.46875 C -5.894531 -10.9375 -5.925781 -11.398438 -5.875 -11.859375 C -5.820312 -12.316406 -5.675781 -12.753906 -5.4375 -13.171875 C -5.195312 -13.597656 -4.878906 -13.960938 -4.484375 -14.265625 L -1.328125 -16.6875 C -0.921875 -17 -0.488281 -17.210938 -0.03125 -17.328125 C 0.425781 -17.441406 0.882812 -17.46875 1.34375 -17.40625 C 1.800781 -17.34375 2.238281 -17.195312 2.65625 -16.96875 C 3.082031 -16.75 3.445312 -16.441406 3.75 -16.046875 L 3.84375 -15.921875 C 3.914062 -15.828125 3.941406 -15.710938 3.921875 -15.578125 C 3.898438 -15.453125 3.84375 -15.351562 3.75 -15.28125 Z M 2.234375 -14.125 "/></g></g></g><g fill="#403029" fill-opacity="1"><g transform="translate(115.610082, 70.081534)"><g><path d="M 10.828125 -6.4375 C 10.941406 -6.363281 10.992188 -6.28125 10.984375 -6.1875 C 10.984375 -6.101562 10.925781 -6.035156 10.8125 -5.984375 L 8.78125 -4.859375 C 8.664062 -4.796875 8.535156 -4.765625 8.390625 -4.765625 C 8.253906 -4.773438 8.128906 -4.8125 8.015625 -4.875 L 2.890625 -8 L 1.15625 -7.046875 L 3.65625 -2.53125 C 3.71875 -2.425781 3.726562 -2.3125 3.6875 -2.1875 C 3.65625 -2.070312 3.582031 -1.984375 3.46875 -1.921875 L 1.796875 -0.984375 C 1.679688 -0.929688 1.566406 -0.921875 1.453125 -0.953125 C 1.335938 -0.992188 1.25 -1.066406 1.1875 -1.171875 L -5.171875 -12.671875 C -5.234375 -12.785156 -5.25 -12.898438 -5.21875 -13.015625 C -5.1875 -13.140625 -5.113281 -13.226562 -5 -13.28125 L -3.328125 -14.21875 C -3.210938 -14.28125 -3.09375 -14.289062 -2.96875 -14.25 C -2.851562 -14.21875 -2.765625 -14.144531 -2.703125 -14.03125 L -0.1875 -9.5 L 1.546875 -10.453125 L 1.59375 -16.484375 C 1.601562 -16.617188 1.640625 -16.75 1.703125 -16.875 C 1.773438 -17 1.867188 -17.09375 1.984375 -17.15625 L 4.015625 -18.28125 C 4.128906 -18.332031 4.222656 -18.335938 4.296875 -18.296875 C 4.378906 -18.253906 4.414062 -18.171875 4.40625 -18.046875 L 4.34375 -10.421875 Z M 10.828125 -6.4375 "/></g></g></g><g fill="#403029" fill-opacity="1"><g transform="translate(132.843683, 61.007087)"><g/></g></g><g fill="#403029" fill-opacity="1"><g transform="translate(151.227645, 54.635822)"><g><path d="M 6.109375 -15.609375 C 6.585938 -15.703125 7.054688 -15.695312 7.515625 -15.59375 C 7.984375 -15.488281 8.410156 -15.3125 8.796875 -15.0625 C 9.191406 -14.8125 9.523438 -14.488281 9.796875 -14.09375 C 10.078125 -13.695312 10.269531 -13.253906 10.375 -12.765625 L 10.609375 -11.609375 C 10.691406 -11.191406 10.703125 -10.785156 10.640625 -10.390625 C 10.585938 -10.003906 10.476562 -9.632812 10.3125 -9.28125 C 10.613281 -9.019531 10.863281 -8.722656 11.0625 -8.390625 C 11.269531 -8.054688 11.414062 -7.6875 11.5 -7.28125 L 11.734375 -6.109375 C 11.835938 -5.609375 11.835938 -5.128906 11.734375 -4.671875 C 11.640625 -4.210938 11.460938 -3.785156 11.203125 -3.390625 C 10.953125 -3.003906 10.628906 -2.671875 10.234375 -2.390625 C 9.847656 -2.117188 9.414062 -1.9375 8.9375 -1.84375 L 1.890625 -0.390625 C 1.785156 -0.367188 1.679688 -0.394531 1.578125 -0.46875 C 1.484375 -0.539062 1.421875 -0.632812 1.390625 -0.75 L -1.25 -13.625 C -1.28125 -13.75 -1.257812 -13.863281 -1.1875 -13.96875 C -1.125 -14.070312 -1.039062 -14.132812 -0.9375 -14.15625 Z M 2.515625 -9.140625 L 7.234375 -10.109375 C 7.453125 -10.148438 7.617188 -10.257812 7.734375 -10.4375 C 7.859375 -10.613281 7.898438 -10.816406 7.859375 -11.046875 L 7.625 -12.203125 C 7.570312 -12.429688 7.453125 -12.601562 7.265625 -12.71875 C 7.085938 -12.84375 6.890625 -12.882812 6.671875 -12.84375 L 1.953125 -11.875 Z M 8.75 -6.71875 C 8.707031 -6.9375 8.59375 -7.101562 8.40625 -7.21875 C 8.226562 -7.34375 8.03125 -7.382812 7.8125 -7.34375 L 3.09375 -6.375 L 3.65625 -3.609375 L 8.375 -4.578125 C 8.59375 -4.617188 8.757812 -4.734375 8.875 -4.921875 C 9 -5.117188 9.035156 -5.328125 8.984375 -5.546875 Z M 8.75 -6.71875 "/></g></g></g><g fill="#403029" fill-opacity="1"><g transform="translate(170.359835, 51.099503)"><g><path d="M 12.515625 -1.0625 C 12.566406 -0.957031 12.566406 -0.859375 12.515625 -0.765625 C 12.472656 -0.679688 12.390625 -0.640625 12.265625 -0.640625 L 10.078125 -0.515625 C 9.953125 -0.515625 9.828125 -0.550781 9.703125 -0.625 C 9.585938 -0.707031 9.503906 -0.796875 9.453125 -0.890625 L 6.8125 -5.984375 L 4.046875 -5.828125 L 4.3125 -0.671875 C 4.320312 -0.546875 4.285156 -0.4375 4.203125 -0.34375 C 4.117188 -0.257812 4.015625 -0.210938 3.890625 -0.203125 L 1.96875 -0.109375 C 1.84375 -0.0976562 1.734375 -0.132812 1.640625 -0.21875 C 1.546875 -0.300781 1.492188 -0.40625 1.484375 -0.53125 L 0.8125 -13.65625 C 0.800781 -13.78125 0.835938 -13.890625 0.921875 -13.984375 C 1.003906 -14.078125 1.109375 -14.128906 1.234375 -14.140625 L 8.375 -14.5 C 8.882812 -14.53125 9.363281 -14.457031 9.8125 -14.28125 C 10.257812 -14.113281 10.65625 -13.875 11 -13.5625 C 11.34375 -13.25 11.617188 -12.878906 11.828125 -12.453125 C 12.046875 -12.023438 12.164062 -11.5625 12.1875 -11.0625 L 12.25 -9.875 C 12.269531 -9.46875 12.222656 -9.070312 12.109375 -8.6875 C 12.003906 -8.300781 11.84375 -7.953125 11.625 -7.640625 C 11.414062 -7.328125 11.15625 -7.050781 10.84375 -6.8125 C 10.53125 -6.582031 10.1875 -6.40625 9.8125 -6.28125 Z M 8.671875 -8.859375 C 8.910156 -8.867188 9.101562 -8.957031 9.25 -9.125 C 9.394531 -9.300781 9.460938 -9.503906 9.453125 -9.734375 L 9.390625 -10.921875 C 9.378906 -11.148438 9.289062 -11.335938 9.125 -11.484375 C 8.96875 -11.628906 8.769531 -11.695312 8.53125 -11.6875 L 3.765625 -11.4375 L 3.90625 -8.609375 Z M 8.671875 -8.859375 "/></g></g></g><g fill="#403029" fill-opacity="1"><g transform="translate(189.827148, 50.486033)"><g><path d="M 13.625 -10.375 C 13.613281 -10.25 13.5625 -10.144531 13.46875 -10.0625 C 13.375 -9.988281 13.265625 -9.957031 13.140625 -9.96875 L 5.625 -10.71875 L 5.34375 -7.90625 L 12.140625 -7.234375 C 12.265625 -7.222656 12.367188 -7.171875 12.453125 -7.078125 C 12.535156 -6.992188 12.570312 -6.890625 12.5625 -6.765625 L 12.359375 -4.859375 C 12.347656 -4.734375 12.296875 -4.628906 12.203125 -4.546875 C 12.109375 -4.472656 12 -4.441406 11.875 -4.453125 L 5.078125 -5.125 L 4.796875 -2.328125 L 12.3125 -1.578125 C 12.4375 -1.566406 12.535156 -1.515625 12.609375 -1.421875 C 12.679688 -1.328125 12.710938 -1.222656 12.703125 -1.109375 L 12.515625 0.78125 C 12.503906 0.90625 12.453125 1.007812 12.359375 1.09375 C 12.265625 1.175781 12.15625 1.210938 12.03125 1.203125 L 2.140625 0.21875 C 2.015625 0.195312 1.914062 0.140625 1.84375 0.046875 C 1.769531 -0.046875 1.738281 -0.15625 1.75 -0.28125 L 3.046875 -13.359375 C 3.054688 -13.484375 3.109375 -13.585938 3.203125 -13.671875 C 3.296875 -13.753906 3.40625 -13.785156 3.53125 -13.765625 L 13.421875 -12.78125 C 13.546875 -12.769531 13.644531 -12.71875 13.71875 -12.625 C 13.789062 -12.53125 13.820312 -12.421875 13.8125 -12.296875 Z M 13.625 -10.375 "/></g></g></g><g fill="#403029" fill-opacity="1"><g transform="translate(209.14527, 52.803981)"><g><path d="M 12.328125 -11.34375 C 12.796875 -11.226562 13.21875 -11.019531 13.59375 -10.71875 C 13.96875 -10.425781 14.273438 -10.078125 14.515625 -9.671875 C 14.753906 -9.273438 14.910156 -8.84375 14.984375 -8.375 C 15.066406 -7.90625 15.046875 -7.425781 14.921875 -6.9375 L 14.625 -5.796875 C 14.519531 -5.378906 14.351562 -5.007812 14.125 -4.6875 C 13.90625 -4.363281 13.640625 -4.078125 13.328125 -3.828125 C 13.484375 -3.472656 13.582031 -3.097656 13.625 -2.703125 C 13.664062 -2.304688 13.632812 -1.90625 13.53125 -1.5 L 13.234375 -0.359375 C 13.109375 0.140625 12.898438 0.570312 12.609375 0.9375 C 12.316406 1.3125 11.96875 1.613281 11.5625 1.84375 C 11.164062 2.082031 10.726562 2.238281 10.25 2.3125 C 9.78125 2.394531 9.3125 2.378906 8.84375 2.265625 L 1.875 0.484375 C 1.757812 0.453125 1.671875 0.382812 1.609375 0.28125 C 1.554688 0.175781 1.546875 0.0625 1.578125 -0.0625 L 4.828125 -12.796875 C 4.859375 -12.921875 4.925781 -13.015625 5.03125 -13.078125 C 5.132812 -13.140625 5.242188 -13.15625 5.359375 -13.125 Z M 6.265625 -7.109375 L 10.9375 -5.90625 C 11.144531 -5.851562 11.34375 -5.878906 11.53125 -5.984375 C 11.71875 -6.097656 11.835938 -6.269531 11.890625 -6.5 L 12.1875 -7.640625 C 12.25 -7.867188 12.222656 -8.078125 12.109375 -8.265625 C 11.992188 -8.453125 11.832031 -8.570312 11.625 -8.625 L 6.953125 -9.828125 Z M 10.796875 -2.203125 C 10.859375 -2.429688 10.832031 -2.632812 10.71875 -2.8125 C 10.601562 -3 10.441406 -3.117188 10.234375 -3.171875 L 5.5625 -4.375 L 4.859375 -1.640625 L 9.53125 -0.4375 C 9.738281 -0.382812 9.9375 -0.414062 10.125 -0.53125 C 10.320312 -0.65625 10.445312 -0.832031 10.5 -1.0625 Z M 10.796875 -2.203125 "/></g></g></g><g fill="#403029" fill-opacity="1"><g transform="translate(227.894998, 57.995818)"><g><path d="M 14.453125 -8.640625 C 14.492188 -8.753906 14.570312 -8.832031 14.6875 -8.875 C 14.800781 -8.925781 14.914062 -8.929688 15.03125 -8.890625 L 16.8125 -8.140625 C 16.925781 -8.085938 17.003906 -8 17.046875 -7.875 C 17.085938 -7.757812 17.085938 -7.644531 17.046875 -7.53125 L 11.90625 4.5625 C 11.863281 4.675781 11.785156 4.753906 11.671875 4.796875 C 11.554688 4.847656 11.441406 4.847656 11.328125 4.796875 L 9.546875 4.046875 C 9.429688 4.003906 9.351562 3.921875 9.3125 3.796875 C 9.269531 3.679688 9.269531 3.566406 9.3125 3.453125 L 11.1875 -0.9375 L 7.984375 -7.78125 L 4.140625 1.265625 C 4.097656 1.378906 4.015625 1.457031 3.890625 1.5 C 3.773438 1.550781 3.664062 1.554688 3.5625 1.515625 L 1.8125 0.765625 C 1.695312 0.722656 1.613281 0.640625 1.5625 0.515625 C 1.519531 0.398438 1.519531 0.285156 1.5625 0.171875 L 6.703125 -11.921875 C 6.742188 -12.035156 6.820312 -12.113281 6.9375 -12.15625 C 7.0625 -12.207031 7.179688 -12.210938 7.296875 -12.171875 L 9.046875 -11.421875 C 9.148438 -11.378906 9.257812 -11.300781 9.375 -11.1875 C 9.488281 -11.070312 9.570312 -10.953125 9.625 -10.828125 L 12.65625 -4.40625 Z M 14.453125 -8.640625 "/></g></g></g><g fill="#403029" fill-opacity="1"><g transform="translate(245.667388, 65.967498)"><g><path d="M 16.796875 -3.359375 C 16.734375 -3.253906 16.640625 -3.1875 16.515625 -3.15625 C 16.398438 -3.132812 16.289062 -3.15625 16.1875 -3.21875 L 9.75 -7.1875 L 8.265625 -4.78125 L 14.09375 -1.1875 C 14.195312 -1.125 14.265625 -1.035156 14.296875 -0.921875 C 14.328125 -0.804688 14.3125 -0.695312 14.25 -0.59375 L 13.25 1.046875 C 13.175781 1.148438 13.078125 1.210938 12.953125 1.234375 C 12.835938 1.265625 12.726562 1.25 12.625 1.1875 L 6.796875 -2.40625 L 5.328125 0 L 11.765625 3.96875 C 11.867188 4.03125 11.929688 4.117188 11.953125 4.234375 C 11.984375 4.359375 11.96875 4.46875 11.90625 4.5625 L 10.90625 6.1875 C 10.84375 6.300781 10.75 6.367188 10.625 6.390625 C 10.507812 6.421875 10.398438 6.40625 10.296875 6.34375 L 1.828125 1.125 C 1.722656 1.0625 1.660156 0.972656 1.640625 0.859375 C 1.617188 0.742188 1.640625 0.628906 1.703125 0.515625 L 8.59375 -10.671875 C 8.664062 -10.773438 8.757812 -10.84375 8.875 -10.875 C 8.988281 -10.90625 9.097656 -10.890625 9.203125 -10.828125 L 17.671875 -5.609375 C 17.773438 -5.546875 17.835938 -5.453125 17.859375 -5.328125 C 17.890625 -5.210938 17.867188 -5.101562 17.796875 -5 Z M 16.796875 -3.359375 "/></g></g></g><g fill="#403029" fill-opacity="1"><g transform="translate(262.023251, 76.500549)"><g><path d="M 9.828125 7.796875 C 9.796875 7.921875 9.734375 7.992188 9.640625 8.015625 C 9.554688 8.046875 9.46875 8.019531 9.375 7.9375 L 7.703125 6.53125 C 7.609375 6.445312 7.539062 6.335938 7.5 6.203125 C 7.46875 6.066406 7.46875 5.941406 7.5 5.828125 L 9.0625 0.328125 L 6.9375 -1.46875 L 3.609375 2.46875 C 3.523438 2.5625 3.421875 2.613281 3.296875 2.625 C 3.171875 2.632812 3.0625 2.597656 2.96875 2.515625 L 1.5 1.265625 C 1.40625 1.191406 1.351562 1.09375 1.34375 0.96875 C 1.332031 0.84375 1.367188 0.734375 1.453125 0.640625 L 9.953125 -9.390625 C 10.023438 -9.484375 10.125 -9.535156 10.25 -9.546875 C 10.375 -9.554688 10.484375 -9.523438 10.578125 -9.453125 L 16.03125 -4.8125 C 16.425781 -4.488281 16.726562 -4.109375 16.9375 -3.671875 C 17.144531 -3.234375 17.265625 -2.785156 17.296875 -2.328125 C 17.335938 -1.867188 17.285156 -1.410156 17.140625 -0.953125 C 17.003906 -0.492188 16.773438 -0.078125 16.453125 0.296875 L 15.6875 1.203125 C 15.425781 1.515625 15.125 1.773438 14.78125 1.984375 C 14.4375 2.191406 14.078125 2.332031 13.703125 2.40625 C 13.335938 2.488281 12.957031 2.507812 12.5625 2.46875 C 12.175781 2.425781 11.800781 2.320312 11.4375 2.15625 Z M 12.390625 -0.5 C 12.578125 -0.34375 12.78125 -0.273438 13 -0.296875 C 13.226562 -0.328125 13.414062 -0.429688 13.5625 -0.609375 L 14.328125 -1.515625 C 14.484375 -1.691406 14.550781 -1.882812 14.53125 -2.09375 C 14.507812 -2.3125 14.40625 -2.5 14.21875 -2.65625 L 10.578125 -5.75 L 8.75 -3.59375 Z M 12.390625 -0.5 "/></g></g></g><g fill="#403029" fill-opacity="1"><g transform="translate(70.193142, 271.363731)"><g><path d="M 3.5 -0.296875 L 4.265625 -0.875 C 4.316406 -0.90625 4.382812 -0.910156 4.46875 -0.890625 C 4.550781 -0.878906 4.617188 -0.84375 4.671875 -0.78125 L 5.25 -0.015625 C 5.289062 0.0546875 5.304688 0.132812 5.296875 0.21875 C 5.285156 0.300781 5.253906 0.359375 5.203125 0.390625 L 4.4375 0.96875 C 4.125 1.207031 3.9375 1.515625 3.875 1.890625 C 3.820312 2.273438 3.910156 2.625 4.140625 2.9375 L 6.890625 6.609375 C 7.117188 6.929688 7.425781 7.117188 7.8125 7.171875 C 8.207031 7.234375 8.5625 7.144531 8.875 6.90625 L 10.34375 5.8125 C 10.65625 5.570312 10.84375 5.257812 10.90625 4.875 C 10.96875 4.488281 10.882812 4.132812 10.65625 3.8125 L 7.90625 0.140625 C 7.664062 -0.179688 7.5 -0.53125 7.40625 -0.90625 C 7.320312 -1.289062 7.300781 -1.675781 7.34375 -2.0625 C 7.394531 -2.445312 7.519531 -2.8125 7.71875 -3.15625 C 7.914062 -3.5 8.179688 -3.789062 8.515625 -4.03125 L 9.96875 -5.125 C 10.300781 -5.375 10.65625 -5.539062 11.03125 -5.625 C 11.414062 -5.71875 11.800781 -5.734375 12.1875 -5.671875 C 12.582031 -5.617188 12.945312 -5.492188 13.28125 -5.296875 C 13.625 -5.109375 13.914062 -4.851562 14.15625 -4.53125 L 16.90625 -0.859375 C 17.144531 -0.523438 17.304688 -0.171875 17.390625 0.203125 C 17.484375 0.585938 17.5 0.972656 17.4375 1.359375 C 17.382812 1.742188 17.257812 2.101562 17.0625 2.4375 C 16.875 2.78125 16.613281 3.078125 16.28125 3.328125 L 15.53125 3.890625 C 15.375 4.003906 15.238281 3.988281 15.125 3.84375 L 14.53125 3.046875 C 14.414062 2.890625 14.4375 2.753906 14.59375 2.640625 L 15.34375 2.078125 C 15.65625 1.847656 15.835938 1.535156 15.890625 1.140625 C 15.953125 0.753906 15.867188 0.398438 15.640625 0.078125 L 12.890625 -3.59375 C 12.660156 -3.90625 12.347656 -4.082031 11.953125 -4.125 C 11.566406 -4.175781 11.21875 -4.085938 10.90625 -3.859375 L 9.453125 -2.765625 C 9.128906 -2.535156 8.9375 -2.222656 8.875 -1.828125 C 8.820312 -1.441406 8.910156 -1.09375 9.140625 -0.78125 L 11.890625 2.890625 C 12.128906 3.222656 12.289062 3.578125 12.375 3.953125 C 12.46875 4.335938 12.488281 4.71875 12.4375 5.09375 C 12.382812 5.476562 12.257812 5.84375 12.0625 6.1875 C 11.863281 6.53125 11.601562 6.820312 11.28125 7.0625 L 9.8125 8.15625 C 9.488281 8.394531 9.128906 8.5625 8.734375 8.65625 C 8.347656 8.757812 7.960938 8.78125 7.578125 8.71875 C 7.203125 8.65625 6.84375 8.523438 6.5 8.328125 C 6.164062 8.140625 5.878906 7.878906 5.640625 7.546875 L 2.890625 3.875 C 2.648438 3.550781 2.484375 3.195312 2.390625 2.8125 C 2.304688 2.4375 2.285156 2.054688 2.328125 1.671875 C 2.378906 1.296875 2.503906 0.929688 2.703125 0.578125 C 2.910156 0.234375 3.175781 -0.0546875 3.5 -0.296875 Z M 3.5 -0.296875 "/></g></g></g><g fill="#403029" fill-opacity="1"><g transform="translate(83.377307, 288.141717)"><g><path d="M 3.453125 3.40625 C 3.160156 3.113281 2.941406 2.785156 2.796875 2.421875 C 2.648438 2.066406 2.570312 1.695312 2.5625 1.3125 C 2.5625 0.9375 2.632812 0.5625 2.78125 0.1875 C 2.9375 -0.175781 3.15625 -0.503906 3.4375 -0.796875 L 9.109375 -6.53125 C 9.398438 -6.832031 9.722656 -7.054688 10.078125 -7.203125 C 10.441406 -7.347656 10.816406 -7.425781 11.203125 -7.4375 C 11.585938 -7.445312 11.960938 -7.378906 12.328125 -7.234375 C 12.691406 -7.097656 13.019531 -6.882812 13.3125 -6.59375 L 16.5625 -3.375 C 16.851562 -3.09375 17.070312 -2.769531 17.21875 -2.40625 C 17.363281 -2.050781 17.4375 -1.675781 17.4375 -1.28125 C 17.445312 -0.882812 17.378906 -0.503906 17.234375 -0.140625 C 17.097656 0.222656 16.882812 0.554688 16.59375 0.859375 L 10.921875 6.59375 C 10.640625 6.882812 10.3125 7.101562 9.9375 7.25 C 9.570312 7.40625 9.195312 7.476562 8.8125 7.46875 C 8.425781 7.46875 8.050781 7.394531 7.6875 7.25 C 7.320312 7.113281 6.992188 6.90625 6.703125 6.625 Z M 12.21875 -5.484375 C 11.9375 -5.765625 11.597656 -5.898438 11.203125 -5.890625 C 10.804688 -5.878906 10.472656 -5.734375 10.203125 -5.453125 L 4.53125 0.28125 C 4.25 0.5625 4.109375 0.894531 4.109375 1.28125 C 4.117188 1.675781 4.265625 2.015625 4.546875 2.296875 L 7.796875 5.515625 C 8.078125 5.785156 8.410156 5.914062 8.796875 5.90625 C 9.191406 5.90625 9.53125 5.765625 9.8125 5.484375 L 15.484375 -0.25 C 15.753906 -0.53125 15.890625 -0.867188 15.890625 -1.265625 C 15.890625 -1.660156 15.75 -1.992188 15.46875 -2.265625 Z M 12.21875 -5.484375 "/></g></g></g><g fill="#403029" fill-opacity="1"><g transform="translate(98.936942, 302.743824)"><g><path d="M 9.84375 -9.84375 C 9.957031 -10.007812 10.097656 -10.035156 10.265625 -9.921875 L 17.96875 -4.3125 C 18.125 -4.207031 18.144531 -4.070312 18.03125 -3.90625 L 17.453125 -3.109375 C 17.335938 -2.960938 17.203125 -2.941406 17.046875 -3.046875 L 10.34375 -7.921875 L 7.59375 -4.125 L 13.734375 0.328125 C 13.796875 0.367188 13.832031 0.429688 13.84375 0.515625 C 13.851562 0.609375 13.835938 0.679688 13.796875 0.734375 L 13.21875 1.53125 C 13.175781 1.59375 13.113281 1.625 13.03125 1.625 C 12.957031 1.632812 12.890625 1.617188 12.828125 1.578125 L 6.6875 -2.875 L 3.1875 1.953125 C 3.070312 2.109375 2.9375 2.128906 2.78125 2.015625 L 2.015625 1.453125 C 1.847656 1.335938 1.820312 1.203125 1.9375 1.046875 Z M 9.84375 -9.84375 "/></g></g></g><g fill="#403029" fill-opacity="1"><g transform="translate(116.517393, 314.837221)"><g><path d="M 5.78125 2.671875 L 11.375 -8.171875 L 7.65625 -10.09375 C 7.488281 -10.1875 7.453125 -10.316406 7.546875 -10.484375 L 8 -11.359375 C 8.082031 -11.535156 8.207031 -11.578125 8.375 -11.484375 L 17.21875 -6.921875 C 17.382812 -6.835938 17.425781 -6.707031 17.34375 -6.53125 L 16.890625 -5.65625 C 16.796875 -5.488281 16.664062 -5.445312 16.5 -5.53125 L 12.765625 -7.453125 L 7.171875 3.390625 C 7.140625 3.460938 7.082031 3.503906 7 3.515625 C 6.914062 3.535156 6.847656 3.53125 6.796875 3.5 L 5.921875 3.046875 C 5.742188 2.960938 5.695312 2.835938 5.78125 2.671875 Z M 5.78125 2.671875 "/></g></g></g><g fill="#403029" fill-opacity="1"><g transform="translate(135.718029, 324.146298)"><g><path d="M 15.09375 -9.421875 C 15.132812 -9.484375 15.191406 -9.535156 15.265625 -9.578125 C 15.335938 -9.617188 15.414062 -9.625 15.5 -9.59375 L 16.421875 -9.28125 C 16.472656 -9.257812 16.519531 -9.207031 16.5625 -9.125 C 16.601562 -9.050781 16.609375 -8.984375 16.578125 -8.921875 L 11.265625 3.5 C 11.234375 3.582031 11.179688 3.640625 11.109375 3.671875 C 11.035156 3.703125 10.957031 3.703125 10.875 3.671875 L 9.71875 3.28125 C 9.539062 3.21875 9.429688 3.09375 9.390625 2.90625 L 8.296875 -2.28125 L 4.3125 1.1875 C 4.164062 1.3125 4 1.34375 3.8125 1.28125 L 2.65625 0.890625 C 2.582031 0.867188 2.523438 0.820312 2.484375 0.75 C 2.441406 0.6875 2.4375 0.613281 2.46875 0.53125 L 5.75 -12.578125 C 5.757812 -12.640625 5.800781 -12.691406 5.875 -12.734375 C 5.945312 -12.785156 6.019531 -12.796875 6.09375 -12.765625 L 7 -12.46875 C 7.082031 -12.4375 7.140625 -12.378906 7.171875 -12.296875 C 7.210938 -12.222656 7.222656 -12.148438 7.203125 -12.078125 L 4.328125 -0.71875 L 8.015625 -4.046875 C 8.160156 -4.179688 8.320312 -4.21875 8.5 -4.15625 L 9.28125 -3.90625 C 9.46875 -3.84375 9.578125 -3.710938 9.609375 -3.515625 L 10.53125 1.375 Z M 15.09375 -9.421875 "/></g></g></g><g fill="#403029" fill-opacity="1"><g transform="translate(156.101209, 330.458893)"><g><path d="M 11.34375 -12.265625 C 11.425781 -12.242188 11.5 -12.203125 11.5625 -12.140625 C 11.625 -12.078125 11.664062 -12.007812 11.6875 -11.9375 L 13.25 -4.4375 C 13.269531 -4.351562 13.28125 -4.253906 13.28125 -4.140625 C 13.28125 -4.035156 13.273438 -3.941406 13.265625 -3.859375 L 12.25 1.859375 C 12.21875 2.046875 12.101562 2.125 11.90625 2.09375 L 10.96875 1.9375 C 10.769531 1.894531 10.6875 1.78125 10.71875 1.59375 L 11.375 -2.140625 L 4.078125 -3.421875 L 3.421875 0.3125 C 3.390625 0.5 3.273438 0.578125 3.078125 0.546875 L 2.125 0.375 C 1.925781 0.34375 1.84375 0.234375 1.875 0.046875 L 2.890625 -5.671875 C 2.898438 -5.753906 2.925781 -5.847656 2.96875 -5.953125 C 3.007812 -6.066406 3.050781 -6.15625 3.09375 -6.21875 L 7.125 -12.75 C 7.15625 -12.800781 7.21875 -12.84375 7.3125 -12.875 C 7.40625 -12.914062 7.488281 -12.929688 7.5625 -12.921875 Z M 11.640625 -3.65625 L 11.734375 -4.125 L 10.34375 -10.859375 L 8.0625 -11.265625 L 4.4375 -5.40625 L 4.34375 -4.9375 Z M 11.640625 -3.65625 "/></g></g></g><g fill="#403029" fill-opacity="1"><g transform="translate(177.202383, 333.631132)"><g><path d="M 10.453125 -0.03125 L 7.9375 -6.0625 L 3.5625 -6.171875 L 3.421875 -0.203125 C 3.421875 -0.015625 3.320312 0.078125 3.125 0.078125 L 2.171875 0.046875 C 1.984375 0.046875 1.890625 -0.046875 1.890625 -0.234375 L 2.203125 -13.703125 C 2.210938 -13.898438 2.3125 -14 2.5 -14 L 9.75 -13.828125 C 10.15625 -13.816406 10.535156 -13.726562 10.890625 -13.5625 C 11.242188 -13.40625 11.554688 -13.179688 11.828125 -12.890625 C 12.097656 -12.609375 12.304688 -12.285156 12.453125 -11.921875 C 12.597656 -11.566406 12.664062 -11.179688 12.65625 -10.765625 L 12.625 -8.953125 C 12.601562 -8.285156 12.382812 -7.691406 11.96875 -7.171875 C 11.5625 -6.648438 11.03125 -6.300781 10.375 -6.125 L 9.671875 -5.9375 L 12.15625 0.015625 C 12.195312 0.0859375 12.203125 0.148438 12.171875 0.203125 C 12.140625 0.253906 12.082031 0.28125 12 0.28125 L 10.875 0.25 C 10.789062 0.25 10.707031 0.222656 10.625 0.171875 C 10.539062 0.117188 10.484375 0.0507812 10.453125 -0.03125 Z M 3.609375 -7.71875 L 9.609375 -7.578125 C 10.003906 -7.566406 10.34375 -7.695312 10.625 -7.96875 C 10.90625 -8.25 11.050781 -8.585938 11.0625 -8.984375 L 11.09375 -10.796875 C 11.101562 -11.191406 10.972656 -11.53125 10.703125 -11.8125 C 10.429688 -12.101562 10.097656 -12.253906 9.703125 -12.265625 L 3.703125 -12.40625 Z M 3.609375 -7.71875 "/></g></g></g><g fill="#403029" fill-opacity="1"><g transform="translate(198.540436, 333.591522)"><g><path d="M 2.140625 -0.5625 L 0.421875 -13.921875 C 0.390625 -14.117188 0.472656 -14.226562 0.671875 -14.25 L 10.125 -15.46875 C 10.3125 -15.488281 10.421875 -15.398438 10.453125 -15.203125 L 10.578125 -14.21875 C 10.597656 -14.03125 10.515625 -13.925781 10.328125 -13.90625 L 2.09375 -12.84375 L 2.6875 -8.203125 L 9.8125 -9.125 C 9.882812 -9.132812 9.957031 -9.109375 10.03125 -9.046875 C 10.101562 -8.992188 10.144531 -8.9375 10.15625 -8.875 L 10.28125 -7.90625 C 10.289062 -7.820312 10.265625 -7.75 10.203125 -7.6875 C 10.148438 -7.632812 10.085938 -7.601562 10.015625 -7.59375 L 2.890625 -6.671875 L 3.484375 -2.015625 L 11.71875 -3.078125 C 11.800781 -3.085938 11.875 -3.0625 11.9375 -3 C 12 -2.945312 12.035156 -2.882812 12.046875 -2.8125 L 12.171875 -1.84375 C 12.191406 -1.65625 12.109375 -1.550781 11.921875 -1.53125 L 2.46875 -0.3125 C 2.269531 -0.289062 2.160156 -0.375 2.140625 -0.5625 Z M 2.140625 -0.5625 "/></g></g></g><g fill="#403029" fill-opacity="1"><g transform="translate(219.608328, 330.34347)"><g/></g></g><g fill="#403029" fill-opacity="1"><g transform="translate(239.949008, 323.96473)"><g><path d="M 1.5625 -1.03125 L -4.046875 -13.28125 C -4.078125 -13.34375 -4.078125 -13.414062 -4.046875 -13.5 C -4.015625 -13.582031 -3.96875 -13.640625 -3.90625 -13.671875 L 2.703125 -16.6875 C 3.078125 -16.863281 3.457031 -16.953125 3.84375 -16.953125 C 4.238281 -16.960938 4.617188 -16.898438 4.984375 -16.765625 C 5.347656 -16.628906 5.675781 -16.429688 5.96875 -16.171875 C 6.269531 -15.910156 6.503906 -15.59375 6.671875 -15.21875 L 10.03125 -7.890625 C 10.207031 -7.515625 10.296875 -7.125 10.296875 -6.71875 C 10.304688 -6.320312 10.238281 -5.941406 10.09375 -5.578125 C 9.957031 -5.222656 9.757812 -4.898438 9.5 -4.609375 C 9.25 -4.328125 8.9375 -4.097656 8.5625 -3.921875 L 1.953125 -0.90625 C 1.890625 -0.875 1.816406 -0.867188 1.734375 -0.890625 C 1.660156 -0.910156 1.601562 -0.957031 1.5625 -1.03125 Z M 2.453125 -2.84375 L 7.90625 -5.34375 C 8.269531 -5.507812 8.519531 -5.773438 8.65625 -6.140625 C 8.789062 -6.503906 8.773438 -6.867188 8.609375 -7.234375 L 5.25 -14.5625 C 5.09375 -14.914062 4.828125 -15.160156 4.453125 -15.296875 C 4.085938 -15.441406 3.722656 -15.429688 3.359375 -15.265625 L -2.09375 -12.765625 Z M 2.453125 -2.84375 "/></g></g></g><g fill="#403029" fill-opacity="1"><g transform="translate(259.115802, 314.587456)"><g><path d="M 1.671875 -1.4375 L -5.71875 -12.703125 C -5.820312 -12.867188 -5.789062 -13.003906 -5.625 -13.109375 L 2.34375 -18.34375 C 2.5 -18.445312 2.628906 -18.414062 2.734375 -18.25 L 3.28125 -17.421875 C 3.382812 -17.265625 3.359375 -17.132812 3.203125 -17.03125 L -3.734375 -12.484375 L -1.171875 -8.5625 L 4.828125 -12.5 C 4.890625 -12.539062 4.960938 -12.550781 5.046875 -12.53125 C 5.140625 -12.507812 5.203125 -12.472656 5.234375 -12.421875 L 5.78125 -11.59375 C 5.820312 -11.53125 5.828125 -11.457031 5.796875 -11.375 C 5.773438 -11.300781 5.734375 -11.242188 5.671875 -11.203125 L -0.328125 -7.265625 L 2.25 -3.359375 L 9.1875 -7.90625 C 9.257812 -7.945312 9.332031 -7.957031 9.40625 -7.9375 C 9.488281 -7.914062 9.550781 -7.875 9.59375 -7.8125 L 10.125 -6.984375 C 10.226562 -6.828125 10.203125 -6.695312 10.046875 -6.59375 L 2.078125 -1.359375 C 1.910156 -1.253906 1.773438 -1.28125 1.671875 -1.4375 Z M 1.671875 -1.4375 "/></g></g></g><g fill="#403029" fill-opacity="1"><g transform="translate(276.636838, 302.445804)"><g><path d="M 3.421875 -3.421875 L -3.453125 -6.8125 C -3.523438 -6.84375 -3.601562 -6.890625 -3.6875 -6.953125 C -3.78125 -7.023438 -3.851562 -7.085938 -3.90625 -7.140625 L -7.796875 -11.484375 C -7.847656 -11.546875 -7.875 -11.617188 -7.875 -11.703125 C -7.875 -11.785156 -7.84375 -11.847656 -7.78125 -11.890625 L -7.0625 -12.546875 C -6.914062 -12.671875 -6.773438 -12.660156 -6.640625 -12.515625 L -2.953125 -8.40625 C -2.898438 -8.34375 -2.828125 -8.273438 -2.734375 -8.203125 C -2.648438 -8.140625 -2.578125 -8.085938 -2.515625 -8.046875 L 3.40625 -5.15625 L 5.125 -6.703125 L 2.875 -12.890625 C 2.832031 -12.953125 2.78125 -13.03125 2.71875 -13.125 C 2.664062 -13.226562 2.613281 -13.3125 2.5625 -13.375 L -1.125 -17.484375 C -1.257812 -17.628906 -1.253906 -17.765625 -1.109375 -17.890625 L -0.375 -18.5625 C -0.226562 -18.6875 -0.0859375 -18.675781 0.046875 -18.53125 L 3.9375 -14.1875 C 3.988281 -14.132812 4.039062 -14.054688 4.09375 -13.953125 C 4.15625 -13.859375 4.195312 -13.773438 4.21875 -13.703125 L 6.859375 -6.515625 C 6.890625 -6.441406 6.890625 -6.359375 6.859375 -6.265625 C 6.835938 -6.171875 6.796875 -6.097656 6.734375 -6.046875 L 3.875 -3.484375 C 3.820312 -3.429688 3.75 -3.394531 3.65625 -3.375 C 3.5625 -3.363281 3.484375 -3.378906 3.421875 -3.421875 Z M 3.421875 -3.421875 "/></g></g></g><g fill="#403029" fill-opacity="1"><g transform="translate(292.132653, 287.807284)"><g><path d="M 1.171875 -1.859375 L -9.234375 -10.421875 C -9.390625 -10.546875 -9.40625 -10.6875 -9.28125 -10.84375 L -3.234375 -18.203125 C -3.109375 -18.347656 -2.96875 -18.359375 -2.8125 -18.234375 L -2.046875 -17.609375 C -1.898438 -17.484375 -1.890625 -17.347656 -2.015625 -17.203125 L -7.28125 -10.796875 L -3.65625 -7.828125 L 0.90625 -13.375 C 0.957031 -13.4375 1.023438 -13.46875 1.109375 -13.46875 C 1.191406 -13.476562 1.253906 -13.460938 1.296875 -13.421875 L 2.0625 -12.796875 C 2.125 -12.742188 2.15625 -12.675781 2.15625 -12.59375 C 2.164062 -12.519531 2.144531 -12.453125 2.09375 -12.390625 L -2.46875 -6.84375 L 1.15625 -3.859375 L 6.421875 -10.265625 C 6.472656 -10.328125 6.539062 -10.359375 6.625 -10.359375 C 6.707031 -10.367188 6.773438 -10.347656 6.828125 -10.296875 L 7.59375 -9.671875 C 7.738281 -9.554688 7.75 -9.425781 7.625 -9.28125 L 1.578125 -1.921875 C 1.453125 -1.765625 1.316406 -1.742188 1.171875 -1.859375 Z M 1.171875 -1.859375 "/></g></g></g><g fill="#403029" fill-opacity="1"><g transform="translate(305.25398, 271.007725)"><g><path d="M -10.6875 -9.515625 L -10.171875 -10.359375 C -10.078125 -10.515625 -9.945312 -10.539062 -9.78125 -10.4375 L 0.6875 -4.203125 L 4.78125 -11.078125 C 4.820312 -11.148438 4.882812 -11.195312 4.96875 -11.21875 C 5.050781 -11.238281 5.125 -11.226562 5.1875 -11.1875 L 6.046875 -10.6875 C 6.203125 -10.59375 6.226562 -10.457031 6.125 -10.28125 L 1.375 -2.328125 C 1.34375 -2.265625 1.285156 -2.21875 1.203125 -2.1875 C 1.128906 -2.164062 1.0625 -2.175781 1 -2.21875 L -10.578125 -9.109375 C -10.648438 -9.148438 -10.691406 -9.210938 -10.703125 -9.296875 C -10.722656 -9.378906 -10.71875 -9.453125 -10.6875 -9.515625 Z M -10.6875 -9.515625 "/></g></g></g><g fill="#403029" fill-opacity="1"><g transform="translate(315.705902, 252.404487)"><g><path d="M 1.828125 -4.484375 C 1.671875 -4.109375 1.453125 -3.78125 1.171875 -3.5 C 0.890625 -3.226562 0.578125 -3.019531 0.234375 -2.875 C -0.109375 -2.726562 -0.476562 -2.648438 -0.875 -2.640625 C -1.28125 -2.640625 -1.671875 -2.71875 -2.046875 -2.875 L -9.515625 -5.90625 C -9.898438 -6.0625 -10.226562 -6.28125 -10.5 -6.5625 C -10.78125 -6.84375 -11 -7.15625 -11.15625 -7.5 C -11.3125 -7.851562 -11.394531 -8.222656 -11.40625 -8.609375 C -11.414062 -9.003906 -11.34375 -9.390625 -11.1875 -9.765625 L -9.46875 -14.015625 C -9.3125 -14.390625 -9.09375 -14.710938 -8.8125 -14.984375 C -8.53125 -15.265625 -8.207031 -15.476562 -7.84375 -15.625 C -7.488281 -15.78125 -7.113281 -15.863281 -6.71875 -15.875 C -6.332031 -15.882812 -5.945312 -15.8125 -5.5625 -15.65625 L 1.90625 -12.625 C 2.28125 -12.46875 2.609375 -12.242188 2.890625 -11.953125 C 3.179688 -11.671875 3.394531 -11.351562 3.53125 -11 C 3.675781 -10.644531 3.753906 -10.269531 3.765625 -9.875 C 3.773438 -9.488281 3.703125 -9.109375 3.546875 -8.734375 Z M -9.734375 -9.1875 C -9.890625 -8.820312 -9.890625 -8.457031 -9.734375 -8.09375 C -9.578125 -7.726562 -9.316406 -7.472656 -8.953125 -7.328125 L -1.484375 -4.296875 C -1.117188 -4.148438 -0.753906 -4.148438 -0.390625 -4.296875 C -0.0351562 -4.453125 0.21875 -4.710938 0.375 -5.078125 L 2.09375 -9.328125 C 2.238281 -9.691406 2.234375 -10.050781 2.078125 -10.40625 C 1.929688 -10.769531 1.675781 -11.023438 1.3125 -11.171875 L -6.15625 -14.203125 C -6.519531 -14.347656 -6.882812 -14.347656 -7.25 -14.203125 C -7.613281 -14.054688 -7.867188 -13.800781 -8.015625 -13.4375 Z M -9.734375 -9.1875 "/></g></g></g><g fill="#403029" fill-opacity="1"><g transform="translate(323.238245, 232.439842)"><g><path d="M 0.15625 -1.875 L -12.9375 -5.015625 C -13.019531 -5.023438 -13.082031 -5.066406 -13.125 -5.140625 C -13.164062 -5.210938 -13.175781 -5.285156 -13.15625 -5.359375 L -11.46875 -12.421875 C -11.375 -12.816406 -11.207031 -13.171875 -10.96875 -13.484375 C -10.738281 -13.804688 -10.457031 -14.066406 -10.125 -14.265625 C -9.789062 -14.472656 -9.429688 -14.609375 -9.046875 -14.671875 C -8.660156 -14.742188 -8.265625 -14.726562 -7.859375 -14.625 L -6.09375 -14.203125 C -5.695312 -14.109375 -5.335938 -13.941406 -5.015625 -13.703125 C -4.691406 -13.472656 -4.429688 -13.191406 -4.234375 -12.859375 C -4.046875 -12.535156 -3.914062 -12.175781 -3.84375 -11.78125 C -3.78125 -11.394531 -3.796875 -11.003906 -3.890625 -10.609375 L -5.28125 -4.78125 L 0.515625 -3.390625 C 0.703125 -3.347656 0.773438 -3.234375 0.734375 -3.046875 L 0.5 -2.09375 C 0.476562 -2.019531 0.4375 -1.957031 0.375 -1.90625 C 0.3125 -1.863281 0.238281 -1.851562 0.15625 -1.875 Z M -6.78125 -5.140625 L -5.390625 -10.96875 C -5.296875 -11.351562 -5.351562 -11.710938 -5.5625 -12.046875 C -5.78125 -12.390625 -6.082031 -12.601562 -6.46875 -12.6875 L -8.234375 -13.109375 C -8.617188 -13.203125 -8.976562 -13.144531 -9.3125 -12.9375 C -9.644531 -12.738281 -9.859375 -12.445312 -9.953125 -12.0625 L -11.34375 -6.234375 Z M -6.78125 -5.140625 "/></g></g></g><g fill="#403029" fill-opacity="1"><g transform="translate(327.673829, 211.565495)"><g><path d="M -0.09375 -2.21875 L -13.515625 -3.34375 C -13.710938 -3.351562 -13.804688 -3.453125 -13.796875 -3.640625 L -13 -13.140625 C -12.976562 -13.328125 -12.867188 -13.414062 -12.671875 -13.40625 L -11.6875 -13.3125 C -11.5 -13.300781 -11.414062 -13.203125 -11.4375 -13.015625 L -12.125 -4.75 L -7.453125 -4.359375 L -6.859375 -11.53125 C -6.847656 -11.601562 -6.804688 -11.664062 -6.734375 -11.71875 C -6.671875 -11.769531 -6.609375 -11.789062 -6.546875 -11.78125 L -5.578125 -11.703125 C -5.492188 -11.691406 -5.425781 -11.65625 -5.375 -11.59375 C -5.332031 -11.53125 -5.316406 -11.460938 -5.328125 -11.390625 L -5.921875 -4.21875 L -1.25 -3.828125 L -0.5625 -12.09375 C -0.550781 -12.175781 -0.507812 -12.238281 -0.4375 -12.28125 C -0.375 -12.332031 -0.304688 -12.359375 -0.234375 -12.359375 L 0.75 -12.28125 C 0.9375 -12.257812 1.019531 -12.15625 1 -11.96875 L 0.203125 -2.46875 C 0.191406 -2.28125 0.09375 -2.195312 -0.09375 -2.21875 Z M -0.09375 -2.21875 "/></g></g></g><g fill="#403029" fill-opacity="1"><g transform="translate(328.928342, 190.288522)"><g><path d="M -0.96875 -10.40625 L -6.765625 -7.359375 L -6.46875 -3 L -0.515625 -3.40625 C -0.328125 -3.414062 -0.222656 -3.320312 -0.203125 -3.125 L -0.140625 -2.171875 C -0.128906 -1.984375 -0.21875 -1.882812 -0.40625 -1.875 L -13.84375 -0.96875 C -14.039062 -0.945312 -14.144531 -1.03125 -14.15625 -1.21875 L -14.65625 -8.453125 C -14.675781 -8.859375 -14.617188 -9.242188 -14.484375 -9.609375 C -14.359375 -9.984375 -14.164062 -10.316406 -13.90625 -10.609375 C -13.644531 -10.898438 -13.335938 -11.132812 -12.984375 -11.3125 C -12.640625 -11.5 -12.257812 -11.601562 -11.84375 -11.625 L -10.046875 -11.75 C -9.378906 -11.800781 -8.769531 -11.640625 -8.21875 -11.265625 C -7.664062 -10.898438 -7.269531 -10.410156 -7.03125 -9.796875 L -6.78125 -9.09375 L -1.078125 -12.109375 C -1.015625 -12.148438 -0.953125 -12.15625 -0.890625 -12.125 C -0.835938 -12.101562 -0.8125 -12.050781 -0.8125 -11.96875 L -0.734375 -10.84375 C -0.722656 -10.757812 -0.738281 -10.671875 -0.78125 -10.578125 C -0.832031 -10.492188 -0.894531 -10.4375 -0.96875 -10.40625 Z M -8.015625 -2.890625 L -8.421875 -8.875 C -8.441406 -9.269531 -8.601562 -9.59375 -8.90625 -9.84375 C -9.207031 -10.101562 -9.554688 -10.21875 -9.953125 -10.1875 L -11.75 -10.0625 C -12.144531 -10.039062 -12.472656 -9.882812 -12.734375 -9.59375 C -12.992188 -9.300781 -13.113281 -8.957031 -13.09375 -8.5625 L -12.6875 -2.578125 Z M -8.015625 -2.890625 "/></g></g></g><g clip-path="url(#389e7401ee)"><path fill="#403029" d="M 137.605469 189.101562 L 161.765625 213.261719 L 159.261719 215.765625 L 132.609375 189.101562 L 159.273438 162.4375 L 161.777344 164.941406 Z M 194.273438 142.433594 L 197.605469 143.273438 L 177.601562 235.757812 L 174.269531 234.917969 Z M 212.601562 162.4375 L 239.261719 189.101562 L 212.601562 215.765625 L 210.097656 213.261719 L 234.257812 189.101562 L 210.097656 164.941406 Z M 212.601562 162.4375 " fill-opacity="1" fill-rule="nonzero"/></g></svg>